SplineFontDB: 3.2
FontName: happy_virus
FullName: happy virus
FamilyName: happy_virus
Weight: Regular
Copyright: Copyright (c) 1980, Anonymous
UComments: "1980-1-1: Created with FontForge (http://fontforge.org)"
Version: 001.000
ItalicAngle: 0
UnderlinePosition: -16
UnderlineWidth: 8
Ascent: 83
Descent: 81
InvalidEm: 0
LayerCount: 2
Layer: 0 0 "Back" 1
Layer: 1 0 "Fore" 0
XUID: [1021 473 292571826 5543819]
OS2Version: 0
OS2_WeightWidthSlopeOnly: 0
OS2_UseTypoMetrics: 1
CreationTime: 315532800
ModificationTime: 315532800
OS2TypoAscent: 0
OS2TypoAOffset: 1
OS2TypoDescent: 0
OS2TypoDOffset: 1
OS2TypoLinegap: 0
OS2WinAscent: 0
OS2WinAOffset: 1
OS2WinDescent: 0
OS2WinDOffset: 1
HheadAscent: 0
HheadAOffset: 1
HheadDescent: 0
HheadDOffset: 1
OS2Vendor: 'PfEd'
Lookup: 258 0 0 "kern" { "kern-1" [24,0,2] } ['kern' ('DFLT' <'dflt' > 'latn' <'dflt' > ) ]
MarkAttachClasses: 1
DEI: 91125
KernClass2: 12 9 "kern-1"
 1 f
 1 s
 1 r
 5 i k x
 3 v w
 1 z
 11 b e h m o p
 1 a
 1 t
 3 c u
 1 n
 25 a d e g m o p q r v w x y
 1 s
 1 i
 1 j
 1 z
 1 t
 3 c u
 1 n
 0 {} 0 {} 0 {} 0 {} 0 {} 0 {} 0 {} 0 {} 0 {} 0 {} -16 {} -16 {} -8 {} -30 {} -20 {} -10 {} -16 {} -16 {} 0 {} -8 {} -25 {} 0 {} -18 {} 0 {} 0 {} -4 {} -8 {} 0 {} 0 {} -20 {} 0 {} -14 {} 0 {} 0 {} -4 {} -8 {} 0 {} 0 {} 0 {} 0 {} -18 {} 0 {} 0 {} 0 {} 0 {} 0 {} 0 {} -8 {} 0 {} -21 {} 0 {} 0 {} -4 {} -4 {} 0 {} 0 {} 0 {} 0 {} -15 {} -25 {} -10 {} -4 {} 0 {} 0 {} 0 {} -8 {} 0 {} -18 {} -4 {} -8 {} 0 {} 0 {} 0 {} 0 {} 0 {} 0 {} -18 {} -4 {} -8 {} 0 {} 0 {} 0 {} -4 {} -10 {} 0 {} -18 {} 0 {} 0 {} -4 {} -8 {} 0 {} 0 {} 0 {} 0 {} -18 {} 0 {} 0 {} 0 {} 0 {} 0 {} 0 {} 0 {} 0 {} -18 {} -8 {} -8 {} 0 {} 0 {}
Encoding: ISO8859-1
UnicodeInterp: none
NameList: AGL For New Fonts
DisplaySize: -48
AntiAlias: 1
FitToEm: 0
BeginPrivate: 0
EndPrivate
BeginChars: 256 27

StartChar: a
Encoding: 97 97 0
Width: 64
VWidth: 131
Flags: HW
LayerCount: 2
Fore
SplineSet
28.58984375 -1.4169921875 m 0
 34.55078125 -1.4169921875 34.58203125 7.8427734375 28.58984375 7.8427734375 c 0
 18.6396484375 7.8427734375 10.6298828125 15.8388671875 10.6298828125 25.6455078125 c 0
 10.6298828125 35.453125 18.6396484375 43.44921875 28.58984375 43.44921875 c 0
 38.5380859375 43.44921875 46.548828125 35.453125 46.548828125 25.6455078125 c 2
 46.548828125 3.212890625 l 2
 46.548828125 -2.748046875 55.80859375 -2.779296875 55.80859375 3.212890625 c 2
 55.80859375 25.6455078125 l 2
 55.80859375 40.6171875 43.5927734375 52.708984375 28.58984375 52.708984375 c 0
 13.5869140625 52.708984375 1.3701171875 40.6171875 1.3701171875 25.6455078125 c 0
 1.3701171875 10.6748046875 13.5869140625 -1.4169921875 28.58984375 -1.4169921875 c 0
EndSplineSet
EndChar

StartChar: b
Encoding: 98 98 1
Width: 63
VWidth: 131
Flags: HW
LayerCount: 2
Fore
SplineSet
28.431640625 52.70703125 m 0
 22.470703125 52.70703125 22.439453125 43.447265625 28.431640625 43.447265625 c 0
 38.2646484375 43.447265625 46.232421875 35.48046875 46.232421875 25.6455078125 c 0
 46.232421875 15.8125 38.2646484375 7.8447265625 28.431640625 7.8447265625 c 0
 18.5966796875 7.8447265625 10.6298828125 15.8125 10.6298828125 25.6455078125 c 2
 10.6298828125 76.3876953125 l 2
 10.6298828125 82.3486328125 1.3701171875 82.3798828125 1.3701171875 76.3876953125 c 2
 1.3701171875 25.6455078125 l 2
 1.3701171875 10.703125 13.4892578125 -1.4150390625 28.431640625 -1.4150390625 c 0
 43.3740234375 -1.4150390625 55.4921875 10.703125 55.4921875 25.6455078125 c 0
 55.4921875 40.587890625 43.3740234375 52.70703125 28.431640625 52.70703125 c 0
EndSplineSet
EndChar

StartChar: c
Encoding: 99 99 2
Width: 57
VWidth: 131
Flags: HW
LayerCount: 2
Fore
SplineSet
10.6298828125 25.6416015625 m 0
 10.6298828125 41.0126953125 29.998046875 49.2861328125 41.0439453125 38.240234375 c 0
 45.234375 34.0498046875 51.837890625 40.5400390625 47.5908203125 44.787109375 c 0
 37.0146484375 55.36328125 19.876953125 55.36328125 9.30078125 44.787109375 c 0
 -1.275390625 34.2109375 -1.275390625 17.0732421875 9.30078125 6.4970703125 c 0
 19.876953125 -4.0791015625 37.0146484375 -4.0791015625 47.5908203125 6.4970703125 c 0
 51.78125 10.6875 45.291015625 17.291015625 41.0439453125 13.0439453125 c 0
 30.013671875 2.013671875 10.6298828125 10.24609375 10.6298828125 25.6416015625 c 0
EndSplineSet
EndChar

StartChar: d
Encoding: 100 100 3
Width: 63
VWidth: 131
Flags: HW
LayerCount: 2
Fore
SplineSet
28.431640625 43.55078125 m 0
 34.392578125 43.55078125 34.423828125 52.810546875 28.431640625 52.810546875 c 0
 13.48828125 52.810546875 1.3701171875 40.6923828125 1.3701171875 25.7490234375 c 0
 1.3701171875 10.806640625 13.4892578125 -1.3115234375 28.431640625 -1.3115234375 c 0
 43.3740234375 -1.3115234375 55.4921875 10.806640625 55.4921875 25.7490234375 c 2
 55.4921875 76.3173828125 l 2
 55.4921875 82.2783203125 46.232421875 82.3095703125 46.232421875 76.3173828125 c 2
 46.232421875 25.7490234375 l 2
 46.232421875 15.916015625 38.2646484375 7.9482421875 28.431640625 7.9482421875 c 0
 18.5966796875 7.9482421875 10.6298828125 15.916015625 10.6298828125 25.7490234375 c 0
 10.6298828125 35.5830078125 18.59765625 43.55078125 28.431640625 43.55078125 c 0
EndSplineSet
EndChar

StartChar: e
Encoding: 101 101 4
Width: 63
VWidth: 131
Flags: HW
LayerCount: 2
Fore
SplineSet
47.384765625 5.6669921875 m 0
 51.57421875 9.8583984375 45.08203125 16.4599609375 40.8359375 12.2119140625 c 0
 37.9609375 9.3359375 33.7421875 7.0302734375 28.3251953125 7.0302734375 c 0
 18.548828125 7.0302734375 10.6298828125 14.9501953125 10.6298828125 24.724609375 c 0
 10.6298828125 34.5 18.5498046875 42.419921875 28.3251953125 42.419921875 c 0
 36.498046875 42.419921875 43.3740234375 36.8837890625 45.408203125 29.3544921875 c 1
 28.251953125 29.3544921875 l 2
 22.291015625 29.3544921875 22.259765625 20.0947265625 28.251953125 20.0947265625 c 2
 50.6494140625 20.0947265625 l 2
 53.205078125 20.0947265625 55.279296875 22.1689453125 55.279296875 24.724609375 c 0
 55.279296875 39.6083984375 43.208984375 51.6796875 28.3251953125 51.6796875 c 0
 13.4404296875 51.6796875 1.3701171875 39.609375 1.3701171875 24.724609375 c 0
 1.3701171875 6.5908203125 20.0712890625 -8.03515625 38.814453125 -0.1123046875 c 0
 42.0390625 1.251953125 44.9453125 3.2265625 47.384765625 5.6669921875 c 0
EndSplineSet
EndChar

StartChar: f
Encoding: 102 102 5
Width: 42
VWidth: 131
Flags: HW
LayerCount: 2
Fore
SplineSet
29.103515625 71.6025390625 m 0
 35.064453125 71.6025390625 35.095703125 80.8623046875 29.103515625 80.8623046875 c 0
 13.7890625 80.8623046875 1.3701171875 68.443359375 1.3701171875 53.12890625 c 2
 1.3701171875 2.6455078125 l 2
 1.3701171875 -3.3154296875 10.6298828125 -3.3466796875 10.6298828125 2.6455078125 c 2
 10.6298828125 53.12890625 l 2
 10.6298828125 63.333984375 18.8984375 71.6025390625 29.103515625 71.6025390625 c 0
EndSplineSet
EndChar

StartChar: g
Encoding: 103 103 6
Width: 65
VWidth: 131
Flags: HW
LayerCount: 2
Fore
SplineSet
29.001953125 -71.3349609375 m 0
 23.041015625 -71.3349609375 23.009765625 -80.5947265625 29.001953125 -80.5947265625 c 0
 44.3876953125 -80.5947265625 56.9150390625 -68.1943359375 56.9150390625 -52.8427734375 c 0
 56.9267578125 -26.892578125 56.8642578125 -1.015625 56.8369140625 24.896484375 c 0
 56.8369140625 40.2109375 44.41796875 52.6298828125 29.103515625 52.6298828125 c 0
 13.7890625 52.6298828125 1.3701171875 40.2109375 1.3701171875 24.896484375 c 0
 1.3701171875 9.58203125 13.7890625 -2.8369140625 29.103515625 -2.8369140625 c 0
 35.064453125 -2.8369140625 35.095703125 6.4228515625 29.103515625 6.4228515625 c 0
 18.8984375 6.4228515625 10.6298828125 14.69140625 10.6298828125 24.896484375 c 0
 10.6298828125 35.1015625 18.8984375 43.3701171875 29.103515625 43.3701171875 c 0
 39.30859375 43.3701171875 47.5771484375 35.1015625 47.5771484375 24.896484375 c 0
 47.603515625 -1.015625 47.666015625 -26.892578125 47.6552734375 -52.8427734375 c 0
 47.6552734375 -63.0302734375 39.3349609375 -71.3349609375 29.001953125 -71.3349609375 c 0
EndSplineSet
EndChar

StartChar: h
Encoding: 104 104 7
Width: 72
VWidth: 131
Flags: HW
LayerCount: 2
Fore
SplineSet
32.599609375 43.0810546875 m 0
 44.41796875 43.0810546875 54.5703125 32.9345703125 54.5703125 21.111328125 c 0
 54.5703125 15.486328125 52.423828125 9.8642578125 48.1357421875 5.576171875 c 0
 43.9453125 1.3857421875 50.435546875 -5.2177734375 54.6826171875 -0.970703125 c 0
 66.8818359375 11.228515625 66.8818359375 30.9951171875 54.6826171875 43.1943359375 c 0
 42.5341796875 55.3427734375 22.849609375 55.404296875 10.6298828125 43.306640625 c 1
 10.6298828125 76.0830078125 l 2
 10.6298828125 82.0439453125 1.3701171875 82.0751953125 1.3701171875 76.0830078125 c 2
 1.3701171875 21.0595703125 l 2
 1.3828125 13.087890625 4.4306640625 5.1162109375 10.517578125 -0.970703125 c 0
 14.7080078125 -5.1611328125 21.3115234375 1.3291015625 17.064453125 5.576171875 c 0
 12.77734375 9.86328125 10.630859375 15.4853515625 10.630859375 21.111328125 c 0
 10.630859375 32.9296875 20.7763671875 43.0810546875 32.599609375 43.0810546875 c 0
EndSplineSet
EndChar

StartChar: i
Encoding: 105 105 8
Width: 18
VWidth: 131
Flags: HW
LayerCount: 2
Fore
SplineSet
1.3701171875 2.6455078125 m 2
 1.3701171875 -3.3154296875 10.6298828125 -3.3466796875 10.6298828125 2.6455078125 c 2
 10.6298828125 48.103515625 l 2
 10.6298828125 54.064453125 1.3701171875 54.095703125 1.3701171875 48.103515625 c 2
 1.3701171875 2.6455078125 l 2
EndSplineSet
EndChar

StartChar: j
Encoding: 106 106 9
Width: 42
VWidth: 131
Flags: HW
LayerCount: 2
Fore
SplineSet
6 -71.572265625 m 0
 0.0390625 -71.572265625 0.0078125 -80.83203125 6 -80.83203125 c 0
 21.3857421875 -80.83203125 33.9130859375 -68.431640625 33.9130859375 -53.080078125 c 0
 33.9169921875 -19.3203125 33.859375 14.376953125 33.8349609375 48.1083984375 c 0
 33.830078125 54.0654296875 24.5751953125 54.09765625 24.5751953125 48.0986328125 c 0
 24.599609375 14.37109375 24.6572265625 -19.32421875 24.6533203125 -53.080078125 c 0
 24.6533203125 -63.267578125 16.3330078125 -71.572265625 6 -71.572265625 c 0
EndSplineSet
EndChar

StartChar: k
Encoding: 107 107 10
Width: 64
VWidth: 131
Flags: HW
LayerCount: 2
Fore
SplineSet
1.3701171875 2.6455078125 m 2
 1.3701171875 -3.3154296875 10.6298828125 -3.3466796875 10.6298828125 2.6455078125 c 2
 10.6298828125 27.357421875 l 1
 15.587890625 22.986328125 22.017578125 20.369140625 29.4033203125 20.5869140625 c 0
 38.9169921875 20.16015625 46.494140625 12.3173828125 46.494140625 2.697265625 c 0
 46.494140625 -3.263671875 55.75390625 -3.294921875 55.75390625 2.697265625 c 0
 55.75390625 12.0703125 51.0048828125 20.3369140625 43.7822265625 25.2197265625 c 1
 51.0048828125 30.103515625 55.75390625 38.3701171875 55.75390625 47.7421875 c 0
 55.75390625 53.703125 46.494140625 53.734375 46.494140625 47.7421875 c 0
 46.494140625 37.9189453125 38.6689453125 29.865234375 28.5869140625 29.865234375 c 0
 18.60546875 29.865234375 10.6796875 37.8642578125 10.6796875 47.7421875 c 0
 10.6796875 57.146484375 10.6298828125 66.7724609375 10.6298828125 76.2607421875 c 0
 10.6298828125 82.2216796875 1.3701171875 82.2529296875 1.3701171875 76.2607421875 c 2
 1.3701171875 2.6455078125 l 2
EndSplineSet
EndChar

StartChar: l
Encoding: 108 108 11
Width: 18
VWidth: 131
Flags: HW
LayerCount: 2
Fore
SplineSet
1.3701171875 2.6455078125 m 2
 1.3701171875 -3.3154296875 10.6298828125 -3.3466796875 10.6298828125 2.6455078125 c 2
 10.6298828125 76.1767578125 l 2
 10.6298828125 82.1376953125 1.3701171875 82.1689453125 1.3701171875 76.1767578125 c 2
 1.3701171875 2.6455078125 l 2
EndSplineSet
EndChar

StartChar: m
Encoding: 109 109 12
Width: 123
VWidth: 131
Flags: HW
LayerCount: 2
Fore
SplineSet
58.49609375 37.416015625 m 1
 48.65625 53.2802734375 24.8076171875 57.388671875 10.412109375 42.994140625 c 0
 -1.646484375 30.935546875 -1.6455078125 11.3955078125 10.412109375 -0.6630859375 c 0
 14.6025390625 -4.853515625 21.2060546875 1.63671875 16.958984375 5.8837890625 c 0
 12.7412109375 10.1015625 10.6298828125 15.6298828125 10.6298828125 21.1650390625 c 0
 10.6298828125 32.7900390625 20.6103515625 42.775390625 32.2412109375 42.775390625 c 0
 43.875 42.775390625 53.8515625 32.7998046875 53.8515625 21.1484375 c 0
 53.8466796875 15.6181640625 51.7353515625 10.095703125 47.5224609375 5.8837890625 c 0
 43.33203125 1.6943359375 49.8212890625 -4.91015625 54.0693359375 -0.6630859375 c 0
 60.0595703125 5.3251953125 63.140625 13.111328125 63.1396484375 21.16796875 c 0
 63.1396484375 32.7900390625 73.12109375 42.775390625 84.7509765625 42.775390625 c 0
 96.3759765625 42.775390625 106.361328125 32.794921875 106.361328125 21.1650390625 c 0
 106.361328125 15.6298828125 104.25 10.1015625 100.032226562 5.8837890625 c 0
 95.841796875 1.693359375 102.33203125 -4.91015625 106.579101562 -0.6630859375 c 0
 118.63671875 11.39453125 118.637695312 30.935546875 106.579101562 42.994140625 c 0
 92.189453125 57.3837890625 68.34375 53.294921875 58.49609375 37.416015625 c 1
EndSplineSet
EndChar

StartChar: n
Encoding: 110 110 13
Width: 71
VWidth: 131
Flags: HW
LayerCount: 2
Fore
SplineSet
32.140625 43.1171875 m 0
 43.7744140625 43.1171875 53.751953125 33.1396484375 53.751953125 21.4892578125 c 0
 53.7470703125 15.9599609375 51.634765625 10.4365234375 47.4228515625 6.224609375 c 0
 43.232421875 2.0341796875 49.72265625 -4.5693359375 53.9697265625 -0.322265625 c 0
 66.01171875 11.7197265625 66.033203125 31.271484375 53.9697265625 43.3349609375 c 0
 41.9111328125 55.3935546875 22.3701171875 55.3935546875 10.3125 43.3349609375 c 0
 -1.42578125 31.5966796875 -1.8671875 11.8583984375 10.3125 -0.322265625 c 0
 14.5029296875 -4.5126953125 21.1064453125 1.9775390625 16.859375 6.224609375 c 0
 12.6416015625 10.4423828125 10.5302734375 15.97265625 10.5302734375 21.5068359375 c 0
 10.5302734375 33.45703125 20.55859375 43.1171875 32.140625 43.1171875 c 0
EndSplineSet
EndChar

StartChar: o
Encoding: 111 111 14
Width: 63
VWidth: 131
Flags: HW
LayerCount: 2
Fore
SplineSet
28.3525390625 51.958984375 m 0
 23.767578125 51.958984375 17.921875 51.2880859375 17.921875 46.5634765625 c 0
 17.921875 44.0078125 19.99609375 41.93359375 22.5517578125 41.93359375 c 0
 24.490234375 41.93359375 26.3779296875 42.6982421875 28.3525390625 42.6982421875 c 0
 38.9052734375 42.6982421875 46.03125 33.8671875 46.03125 24.9765625 c 0
 46.03125 14.5615234375 37.2109375 7.296875 28.3095703125 7.296875 c 0
 14.6435546875 7.296875 6.28515625 22.2060546875 13.0078125 33.8505859375 c 0
 16.056640625 39.1328125 7.9228515625 43.564453125 4.982421875 38.4716796875 c 0
 -5.2197265625 20.798828125 7.40625 -1.9638671875 28.3095703125 -1.9638671875 c 0
 41.830078125 -1.9638671875 55.2919921875 9.06640625 55.2919921875 24.9765625 c 0
 55.2919921875 38.484375 44.4521484375 51.958984375 28.3525390625 51.958984375 c 0
EndSplineSet
EndChar

StartChar: p
Encoding: 112 112 15
Width: 65
VWidth: 131
Flags: HW
LayerCount: 2
Fore
SplineSet
29.103515625 6.4228515625 m 0
 23.142578125 6.4228515625 23.111328125 -2.8369140625 29.103515625 -2.8369140625 c 0
 44.41796875 -2.8369140625 56.8369140625 9.58203125 56.8369140625 24.896484375 c 0
 56.8369140625 40.2109375 44.41796875 52.6298828125 29.103515625 52.6298828125 c 0
 13.7890625 52.6298828125 1.3701171875 40.2109375 1.3701171875 24.896484375 c 2
 1.3701171875 -76.1103515625 l 2
 1.3701171875 -82.0712890625 10.6298828125 -82.1025390625 10.6298828125 -76.1103515625 c 2
 10.6298828125 24.896484375 l 2
 10.6298828125 35.1015625 18.8984375 43.3701171875 29.103515625 43.3701171875 c 0
 39.30859375 43.3701171875 47.5771484375 35.1015625 47.5771484375 24.896484375 c 0
 47.5771484375 14.69140625 39.30859375 6.4228515625 29.103515625 6.4228515625 c 0
EndSplineSet
EndChar

StartChar: q
Encoding: 113 113 16
Width: 65
VWidth: 131
Flags: HW
LayerCount: 2
Fore
SplineSet
29.103515625 -2.8369140625 m 0
 35.064453125 -2.8369140625 35.095703125 6.4228515625 29.103515625 6.4228515625 c 0
 18.8984375 6.4228515625 10.6298828125 14.69140625 10.6298828125 24.896484375 c 0
 10.6298828125 35.1015625 18.8984375 43.3701171875 29.103515625 43.3701171875 c 0
 39.30859375 43.3701171875 47.5771484375 35.1015625 47.5771484375 24.896484375 c 2
 47.5771484375 -76.1357421875 l 2
 47.5771484375 -82.0966796875 56.8369140625 -82.1279296875 56.8369140625 -76.1357421875 c 2
 56.8369140625 24.896484375 l 2
 56.8369140625 40.2109375 44.41796875 52.6298828125 29.103515625 52.6298828125 c 0
 13.7890625 52.6298828125 1.3701171875 40.2109375 1.3701171875 24.896484375 c 0
 1.3701171875 9.58203125 13.7890625 -2.8369140625 29.103515625 -2.8369140625 c 0
EndSplineSet
EndChar

StartChar: r
Encoding: 114 114 17
Width: 42
VWidth: 131
Flags: HW
LayerCount: 2
Fore
SplineSet
29.283203125 43.3701171875 m 0
 35.244140625 43.3701171875 35.275390625 52.6298828125 29.283203125 52.6298828125 c 0
 13.8984375 52.6298828125 1.3701171875 40.2294921875 1.3701171875 24.8779296875 c 2
 1.3701171875 2.7958984375 l 2
 1.3701171875 -3.1650390625 10.6298828125 -3.1962890625 10.6298828125 2.7958984375 c 2
 10.6298828125 24.8779296875 l 2
 10.6298828125 35.0654296875 18.951171875 43.3701171875 29.283203125 43.3701171875 c 0
EndSplineSet
EndChar

StartChar: s
Encoding: 115 115 18
Width: 64
VWidth: 131
Flags: HW
LayerCount: 2
Fore
SplineSet
23.9599609375 25 m 0
 23.9599609375 15.1923828125 15.94921875 7.197265625 6 7.197265625 c 0
 0.0390625 7.197265625 0.0078125 -2.0625 6 -2.0625 c 0
 21.001953125 -2.0625 33.2197265625 10.0283203125 33.2197265625 25 c 0
 33.2197265625 34.8076171875 41.2294921875 42.802734375 51.1787109375 42.802734375 c 0
 57.1396484375 42.802734375 57.1708984375 52.0625 51.1787109375 52.0625 c 0
 36.1767578125 52.0625 23.9599609375 39.9716796875 23.9599609375 25 c 0
EndSplineSet
EndChar

StartChar: t
Encoding: 116 116 19
Width: 47
VWidth: 131
Flags: HW
LayerCount: 2
Fore
SplineSet
24.90625 76.2021484375 m 2
 24.90625 82.1630859375 15.646484375 82.1943359375 15.646484375 76.2021484375 c 2
 15.646484375 52.7333984375 l 1
 9.671875 52.7333984375 1.3701171875 54.2197265625 1.3701171875 48.103515625 c 0
 1.3701171875 41.9951171875 9.6748046875 43.4736328125 15.646484375 43.4736328125 c 1
 15.646484375 2.8037109375 l 2
 15.646484375 -3.1572265625 24.90625 -3.1884765625 24.90625 2.8037109375 c 2
 24.90625 43.4736328125 l 1
 30.880859375 43.4736328125 39.1826171875 41.9873046875 39.1826171875 48.103515625 c 0
 39.1826171875 54.2119140625 30.8779296875 52.7333984375 24.90625 52.7333984375 c 1
 24.90625 76.2021484375 l 2
EndSplineSet
EndChar

StartChar: u
Encoding: 117 117 20
Width: 72
VWidth: 131
Flags: HW
LayerCount: 2
Fore
SplineSet
32.6005859375 6.9189453125 m 0
 20.7822265625 6.9189453125 10.6298828125 17.0654296875 10.6298828125 28.888671875 c 0
 10.6298828125 34.513671875 12.7763671875 40.1357421875 17.064453125 44.423828125 c 0
 21.2548828125 48.6142578125 14.7646484375 55.2177734375 10.517578125 50.970703125 c 0
 -1.681640625 38.771484375 -1.681640625 19.0048828125 10.517578125 6.8056640625 c 0
 22.7158203125 -5.392578125 42.484375 -5.392578125 54.68359375 6.8056640625 c 0
 66.8701171875 18.9921875 66.8818359375 38.7724609375 54.68359375 50.970703125 c 0
 50.4931640625 55.1611328125 43.8896484375 48.6708984375 48.13671875 44.423828125 c 0
 52.41796875 40.142578125 54.5625 34.5283203125 54.5712890625 28.8896484375 c 0
 54.5712890625 17.0712890625 44.4248046875 6.9189453125 32.6005859375 6.9189453125 c 0
EndSplineSet
EndChar

StartChar: v
Encoding: 118 118 21
Width: 62
VWidth: 131
Flags: HW
LayerCount: 2
Fore
SplineSet
10.19140625 49.7001953125 m 2
 7.748046875 54.888671875 -0.8330078125 51.37109375 1.80859375 45.7626953125 c 2
 23.2197265625 0.298828125 l 2
 24.8369140625 -3.1357421875 29.9365234375 -3.1630859375 31.5859375 0.263671875 c 2
 53.47265625 45.7275390625 l 2
 56.126953125 51.2421875 47.67578125 55.037109375 45.123046875 49.7353515625 c 2
 27.45703125 13.0390625 l 1
 10.19140625 49.7001953125 l 2
EndSplineSet
EndChar

StartChar: w
Encoding: 119 119 22
Width: 123
VWidth: 131
Flags: HW
LayerCount: 2
Fore
SplineSet
58.49609375 12.583984375 m 1
 68.3349609375 -3.2802734375 92.18359375 -7.3896484375 106.579101562 7.005859375 c 0
 118.637695312 19.064453125 118.63671875 38.60546875 106.579101562 50.6630859375 c 0
 102.388671875 54.853515625 95.78515625 48.36328125 100.032226562 44.1162109375 c 0
 104.25 39.8984375 106.361328125 34.3701171875 106.361328125 28.8349609375 c 0
 106.361328125 17.2109375 96.380859375 7.2236328125 84.7509765625 7.2236328125 c 0
 73.119140625 7.2236328125 63.1396484375 17.2001953125 63.1396484375 28.8486328125 c 0
 63.1484375 34.3818359375 65.2578125 39.9052734375 69.46875 44.1162109375 c 0
 73.6591796875 48.306640625 67.1689453125 54.91015625 62.921875 50.6630859375 c 0
 56.93359375 44.6748046875 53.8505859375 36.8857421875 53.8515625 28.83203125 c 0
 53.8515625 17.2099609375 43.8701171875 7.2236328125 32.240234375 7.2236328125 c 0
 20.6162109375 7.2236328125 10.6298828125 17.2041015625 10.6298828125 28.8349609375 c 0
 10.6298828125 34.3701171875 12.7412109375 39.8984375 16.958984375 44.1162109375 c 0
 21.1494140625 48.306640625 14.6591796875 54.91015625 10.412109375 50.6630859375 c 0
 -1.6455078125 38.60546875 -1.646484375 19.064453125 10.412109375 7.005859375 c 0
 24.802734375 -7.384765625 48.6474609375 -3.294921875 58.49609375 12.583984375 c 1
EndSplineSet
EndChar

StartChar: x
Encoding: 120 120 23
Width: 63
VWidth: 131
Flags: HW
LayerCount: 2
Fore
SplineSet
50.724609375 -1.6953125 m 0
 56.685546875 -1.6953125 56.716796875 7.564453125 50.724609375 7.564453125 c 0
 40.2783203125 7.564453125 33.30078125 15.5908203125 32.9951171875 26.095703125 c 0
 33.4130859375 35.517578125 41.185546875 43.0283203125 50.724609375 43.0283203125 c 0
 56.685546875 43.0283203125 56.716796875 52.2880859375 50.724609375 52.2880859375 c 0
 41.42578125 52.2880859375 33.220703125 47.587890625 28.3623046875 40.43359375 c 1
 23.50390625 47.587890625 15.298828125 52.2880859375 6 52.2880859375 c 0
 0.0390625 52.2880859375 0.0078125 43.0283203125 6 43.0283203125 c 0
 16.447265625 43.0283203125 23.423828125 35.0009765625 23.7294921875 24.498046875 c 0
 23.3115234375 15.0751953125 15.5390625 7.564453125 6 7.564453125 c 0
 0.0390625 7.564453125 0.0078125 -1.6953125 6 -1.6953125 c 0
 15.298828125 -1.6953125 23.50390625 3.0048828125 28.3623046875 10.1591796875 c 1
 33.220703125 3.0048828125 41.42578125 -1.6953125 50.724609375 -1.6953125 c 0
EndSplineSet
EndChar

StartChar: y
Encoding: 121 121 24
Width: 72
VWidth: 131
Flags: HW
LayerCount: 2
Fore
SplineSet
32.599609375 6.9189453125 m 0
 20.7822265625 6.9189453125 10.6298828125 17.0654296875 10.6298828125 28.888671875 c 0
 10.6298828125 34.513671875 12.7763671875 40.1357421875 17.064453125 44.423828125 c 0
 21.2548828125 48.6142578125 14.7646484375 55.2177734375 10.517578125 50.970703125 c 0
 -1.681640625 38.771484375 -1.681640625 19.0048828125 10.517578125 6.8056640625 c 0
 22.6669921875 -5.34375 42.3515625 -5.404296875 54.5712890625 6.6943359375 c 1
 54.5927734375 -13.2333984375 54.6337890625 -33.1416015625 54.623046875 -53.1025390625 c 0
 54.623046875 -63.291015625 46.302734375 -71.5947265625 35.9697265625 -71.5947265625 c 0
 30.0087890625 -71.5947265625 29.9775390625 -80.8544921875 35.9697265625 -80.8544921875 c 0
 51.35546875 -80.8544921875 63.8828125 -68.455078125 63.8828125 -53.1025390625 c 0
 63.8935546875 -25.744140625 63.830078125 1.60546875 63.830078125 28.888671875 c 0
 63.830078125 36.876953125 60.783203125 44.8701171875 54.6826171875 50.970703125 c 0
 50.4921875 55.1611328125 43.888671875 48.6708984375 48.1357421875 44.423828125 c 0
 52.80078125 39.759765625 54.5439453125 34.2548828125 54.5439453125 27.8212890625 c 0
 54 16.5576171875 44.1494140625 6.9189453125 32.599609375 6.9189453125 c 0
EndSplineSet
EndChar

StartChar: z
Encoding: 122 122 25
Width: 64
VWidth: 131
Flags: HW
LayerCount: 2
Fore
SplineSet
23.9599609375 25 m 0
 23.9599609375 10.0283203125 36.1767578125 -2.0625 51.1787109375 -2.0625 c 0
 57.1396484375 -2.0625 57.1708984375 7.197265625 51.1787109375 7.197265625 c 0
 41.2294921875 7.197265625 33.2197265625 15.1923828125 33.2197265625 25 c 0
 33.2197265625 39.9716796875 21.001953125 52.0625 6 52.0625 c 0
 0.0390625 52.0625 0.0078125 42.802734375 6 42.802734375 c 0
 15.94921875 42.802734375 23.9599609375 34.8076171875 23.9599609375 25 c 0
EndSplineSet
EndChar

